<svg xmlns="http://www.w3.org/2000/svg" xmlns:xlink="http://www.w3.org/1999/xlink" width="2000" zoomAndPan="magnify" viewBox="0 0 1500 1499.999933" height="2000" preserveAspectRatio="xMidYMid meet" version="1.0"><defs><clipPath id="9e009c33d0"><path d="M 150.257812 299.25 L 1052 299.25 L 1052 1200.75 L 150.257812 1200.75 Z M 150.257812 299.25 " clip-rule="nonzero"/></clipPath><clipPath id="9e2d8a81ee"><path d="M 448.242188 299.25 L 1349.742188 299.25 L 1349.742188 1200.75 L 448.242188 1200.75 Z M 448.242188 299.25 " clip-rule="nonzero"/></clipPath></defs><g clip-path="url(#9e009c33d0)"><path fill="#20a886" d="M 854.175781 552.425781 L 781.832031 624.769531 L 907.0625 750 L 601.007812 1056.054688 L 294.957031 750 L 601.007812 443.945312 L 645.824219 488.761719 L 718.167969 416.40625 L 601.007812 299.25 L 150.257812 750 L 601.007812 1200.75 L 1051.757812 750 L 854.175781 552.425781 " fill-opacity="1" fill-rule="nonzero"/></g><g clip-path="url(#9e2d8a81ee)"><path fill="#ebb03b" d="M 898.992188 299.25 L 448.242188 750 L 645.824219 947.582031 L 718.167969 875.230469 L 592.9375 750 L 898.992188 443.945312 L 1205.042969 750 L 898.992188 1056.054688 L 854.175781 1011.246094 L 781.832031 1083.59375 L 898.992188 1200.75 L 1349.742188 750 L 898.992188 299.25 " fill-opacity="1" fill-rule="nonzero"/></g></svg>